# xmcd
#
# Track frame offsets: 
#        150
#        21669
#        42354
#        59926
#        83024
#        97253
#        113232
#        123398
#        136715
#        155526
#        176098
#        193368
#
# Disc length: 3029 seconds
#
# Revision: 0
# Processed by: cddbd v1.5.2PL0 Copyright (c) Steve Scherf et al.
# Submitted via: ExactAudioCopy v0.95b4
#
DISCID=b40bd30c
DTITLE=Big Fat Mama - Twenty-five Years Old
DYEAR=2004
DGENRE=Blues
TTITLE0=Tore down (Thompson)
TTITLE1=Desert room (De Luca/Ratto)
TTITLE2=I used to have a band (De Luca/Ratto)
TTITLE3=Good mornin' little school girl (S.B. Williamson)
TTITLE4=Livin' with the blues (B. Mc Ghee)
TTITLE5=Mercedes Benz (J. Joplin)
TTITLE6=Big Fat shuffle Part two (De Luca)
TTITLE7=Just a little bit (R. Gordon)
TTITLE8=Promise to myself (De Luca/Ratto)
TTITLE9=Feel so bad (De Luca/Ratto)
TTITLE10=Darlene (De Luca/Ratto)
TTITLE11=Use what you got (F. King)
EXTD=
EXTT0=
EXTT1=
EXTT2=
EXTT3=
EXTT4=
EXTT5=
EXTT6=
EXTT7=
EXTT8=
EXTT9=
EXTT10=
EXTT11=
PLAYORDER=
